<svg width="454" height="455" viewBox="0 0 454 455" fill="none" xmlns="http://www.w3.org/2000/svg">
<path d="M75.718 38.7757C75.718 28.7431 79.7034 19.1213 86.7976 12.0271C93.8918 4.93298 103.514 0.94751 113.546 0.94751H416.172C426.205 0.94751 435.826 4.93298 442.92 12.0271C450.015 19.1213 454 28.7431 454 38.7757V341.401C454 351.434 450.015 361.056 442.92 368.15C435.826 375.244 426.205 379.23 416.172 379.23C406.139 379.23 396.517 375.244 389.423 368.15C382.329 361.056 378.344 351.434 378.344 341.401V130.093L64.6343 443.802C57.4998 450.693 47.9443 454.506 38.0259 454.42C28.1074 454.334 18.6197 450.355 11.606 443.342C4.59235 436.328 0.613986 426.84 0.527797 416.922C0.441609 407.003 4.2545 397.448 11.1452 390.313L324.855 76.6039H113.546C103.514 76.6039 93.8918 72.6185 86.7976 65.5243C79.7034 58.4301 75.718 48.8084 75.718 38.7757Z" fill="white"/>
</svg>
